<svg width="1000" height="1000" viewBox="0 0 1000 1000" fill="none" xmlns="http://www.w3.org/2000/svg">
<path fill-rule="evenodd" clip-rule="evenodd" d="M304 606.433C307.409 614.151 309.672 621.15 311.135 625.725L312.532 630C320.049 602.747 327.698 585.514 338.541 574.627C343.543 569.316 349.563 565.075 356.239 562.16C362.915 559.244 370.109 557.714 377.388 557.661C385.309 557.661 392.955 559.518 400 562.967V253.681C399.742 252.097 398.921 250.659 397.686 249.627C396.451 248.595 394.885 248.039 393.273 248.059H310.727C309.939 247.947 309.135 247.994 308.366 248.198C307.596 248.402 306.875 248.758 306.247 249.246C305.619 249.733 305.096 250.341 304.71 251.035C304.324 251.728 304.082 252.491 304 253.28V606.433Z" fill="#4DD1FF"/>
<path fill-rule="evenodd" clip-rule="evenodd" d="M554 590V74.8527C554 72.1568 551.043 70 547.123 70H462.877C459.232 70 456 72.1568 456 74.8527V584.646C458.01 581.631 460.264 578.777 462.745 576.114C469.075 569.321 476.74 563.922 485.256 560.26C490.879 558.065 496.844 556.889 502.876 556.787H503.874L504.647 556.818C510.7 556.919 516.313 558.798 521.959 560.994C530.476 564.643 538.139 570.038 544.46 576.834C548.173 580.826 551.374 585.249 554 590Z" fill="#FF5B00"/>
<path fill-rule="evenodd" clip-rule="evenodd" d="M610 563.671C616.249 561.038 622.928 559.633 629.835 559.633C637.109 559.743 644.289 561.299 650.96 564.213C657.631 567.126 663.66 571.338 668.7 576.606C679.547 587.498 687.201 604.737 694.721 632L696.118 627.724C697.67 622.809 700.156 615.098 704 606.703V360.342C704 357.937 701.164 356 697.404 356H616.596C613.1 356 610 357.937 610 360.342V563.671Z" fill="white"/>
<path fill-rule="evenodd" clip-rule="evenodd" d="M70 502.126C70 292.479 220.204 117.894 418.926 80V153.718C260.115 190.889 141.838 333.535 141.838 503.834C141.838 530.787 144.801 557.047 150.418 582.306C144.004 577.261 136.481 573.721 128.406 572.015L126.2 571.547H123.994C122.702 571.481 121.408 571.481 120.117 571.547C98.4392 571.547 87.8449 586.602 82.1537 604C74.2103 571.343 70 537.226 70 502.126ZM918.955 599.326C926.181 568.092 930 535.555 930 502.126C930 296.104 784.944 123.941 591.337 82.0875V155.743C745.997 195.835 860.215 336.483 860.215 503.834C860.215 533.443 856.64 562.216 849.898 589.744C857.547 581.115 867.765 575.157 879.058 572.75L881.197 572.282H883.403H887.346C900.533 572.309 910.968 584.294 918.955 599.326Z" fill="white"/>
<path fill-rule="evenodd" clip-rule="evenodd" d="M508.749 596.872C507.31 596.35 505.798 596.056 504.268 596H503.8C502.293 596.063 500.804 596.357 499.386 596.872C495.74 598.718 492.511 601.295 489.9 604.444C487.288 607.593 485.349 611.246 484.204 615.176C477.488 635.24 472.235 655.766 468.487 676.593C463.799 697.272 458.314 734.855 453.452 768.168C448.256 803.77 443.772 834.495 441.734 834.495C441.515 834.495 441.272 834.185 441.006 833.595C439.053 832.481 435.805 811.069 432.083 784.937C431.399 780.45 430.699 775.827 429.991 771.145C425.843 743.723 421.386 714.259 417.724 698.116C412.779 670.89 406.077 644.013 397.659 617.657C393.713 606.326 386.156 597.542 377.595 597.542C375.367 597.647 373.183 598.2 371.172 599.168C369.162 600.135 367.366 601.498 365.89 603.174C354.284 614.871 343.715 664.527 337.691 692.83C337.051 695.841 336.461 698.61 335.927 701.066C332.368 717.356 329.141 735.404 326.21 751.801C321.045 780.691 316.796 804.457 313.255 804.457C310.549 804.457 304.651 775.073 297.642 740.158C290.269 703.433 281.668 660.588 274.263 639.381C269.18 623.423 260.151 601.498 247.845 601.498C243.297 601.498 238.281 604.515 232.863 612.025C220.472 631.147 208.208 665.063 198.78 691.135C191.415 711.502 185.781 727.081 183.17 727.081C182.169 727.081 181.101 726.333 179.988 725.024C176.082 721.469 172.024 710.459 168.256 700.18C168.03 699.595 167.805 699.014 167.583 698.436C165.988 694.302 164.473 690.375 163.106 687.187C160.552 681.114 158.17 674.936 155.788 668.76C148.622 650.183 141.46 631.613 129.665 615.914C127.474 613.12 124.452 611.1 121.037 610.147H120.302C110.47 610.147 102.311 626.105 96.2912 650.377C93.4153 662.044 93.4152 666.402 95.3548 666.402C97.2943 666.402 100.973 660.502 103.113 652.992C105.655 643.806 113.814 620.741 119.9 620.741C123.579 620.741 132.675 638.845 137.825 651.316C139.37 655.058 141.734 661.467 144.609 669.264C151.318 687.454 160.812 713.196 169.192 730.233C173.874 739.888 178.823 743.643 183.571 743.643C191.062 743.643 198.218 734.323 203.636 722.991C210.325 709.616 215.931 695.64 221.514 681.72C226.315 669.751 231.1 657.823 236.542 646.354C239.477 639.511 243.155 633.012 247.51 626.977C249.979 626.977 254.967 652.119 261.52 685.15C270.768 731.762 283.133 794.084 295.932 823.633C301.751 835.232 308.105 839.926 314.191 839.926C324.023 839.926 333.386 826.985 337.399 811.094C345.556 778.816 353.004 745.322 359.334 716.86C368.676 674.849 375.581 643.8 378.73 643.8C382.853 643.8 392.23 700.016 400.281 748.291C402.549 761.884 404.711 774.848 406.621 785.75C408.23 794.914 409.604 803.388 410.879 811.246C415.907 842.256 419.384 863.693 429.628 880.222C430.881 881.857 432.317 883.342 433.909 884.648C436.515 886.694 439.697 887.866 443.005 888C445.028 887.98 447.026 887.548 448.877 886.73C450.728 885.911 452.394 884.724 453.773 883.24C460.263 875.677 463.072 865.024 465.597 855.451C466.117 853.481 466.624 851.557 467.149 849.715C472.39 827.114 476.957 797.135 481.518 767.191C486.036 737.529 490.549 707.9 495.707 685.511C498.048 674.582 501.836 659.849 504.912 647.914C506.844 655.249 508.331 663.64 509.733 671.556C510.612 676.52 511.458 681.298 512.361 685.511C517.52 707.9 522.033 737.529 526.551 767.192C531.112 797.135 535.678 827.114 540.919 849.715C541.308 851.203 541.69 852.739 542.08 854.305C544.567 864.309 547.356 875.529 554.296 883.24C555.684 884.712 557.352 885.891 559.201 886.708C561.05 887.526 563.043 887.965 565.063 888C568.374 887.88 571.56 886.706 574.159 884.648C575.768 883.36 577.206 881.873 578.44 880.222C588.782 863.622 592.255 842.071 597.287 810.844C598.535 803.098 599.878 794.758 601.447 785.75C602.805 778.059 604.327 769.261 605.949 759.885C614.792 708.771 626.611 640.454 631.075 640.454C633.968 640.454 639.568 667.65 647.337 705.381C653.757 736.56 661.658 774.932 670.736 811.094C674.749 826.985 683.912 839.926 693.944 839.926C700.03 839.926 706.384 835.232 712.136 823.633C724.715 794.414 737.578 732.584 747.336 685.675C754.44 651.529 759.898 625.288 762.406 625.288C766.761 631.324 770.756 639.014 773.691 645.857C785.462 670.666 795.234 697.28 804.499 722.991C809.85 734.323 817.006 743.643 824.564 743.643C829.312 743.643 834.261 739.62 838.943 730.233C847.323 713.196 856.817 687.455 863.526 669.264C866.401 661.467 868.765 655.058 870.311 651.316C875.46 638.845 884.556 620.741 888.235 620.741C894.254 620.741 902.481 643.806 905.022 652.992C907.162 660.166 911.175 666.402 912.78 666.402C914.385 666.402 914.72 662.044 911.844 650.377C907.098 631.24 901.021 617.271 893.844 612.218C891.817 610.94 889.765 610.334 887.726 610.497C885.286 611.166 881.698 613.121 879.048 615.21C878.849 615.438 878.657 615.673 878.47 615.914C867.051 631.376 859.943 649.586 852.798 667.89C850.277 674.349 847.751 680.821 845.029 687.187C843.875 690.003 842.6 693.372 841.248 696.944C836.097 710.549 829.839 727.081 824.965 727.081C822.301 727.081 817.045 711.544 810.15 691.158C801.122 664.465 789.282 629.46 776.768 610.147C771.351 602.638 763.943 599.577 759.328 599.577C747.089 599.577 738.955 623.423 733.872 639.381C726.447 660.643 717.803 703.655 710.41 740.444C703.419 775.233 697.546 804.457 694.88 804.457C691.356 804.457 687.031 780.338 681.798 751.16C678.888 734.935 675.697 717.144 672.207 701.066C671.676 698.622 671.09 695.868 670.453 692.873C664.43 664.577 653.851 614.877 642.178 603.174C640.71 601.505 638.925 600.148 636.926 599.18C634.928 598.213 632.757 597.656 630.54 597.542C621.779 597.542 614.221 606.393 610.476 617.657C601.996 643.995 595.293 670.876 590.412 698.116C586.782 714.173 582.4 743.256 578.302 770.453C573.261 803.901 568.651 834.495 566.401 834.495C564.28 834.495 559.753 803.369 554.533 767.472C549.714 734.333 544.304 697.128 539.649 676.593C535.868 655.773 530.616 635.249 523.931 615.176C522.786 611.246 520.847 607.593 518.236 604.444C515.624 601.295 512.395 598.718 508.749 596.872Z" fill="white"/>
</svg>
