<svg width="1000" height="1000" viewBox="0 0 1000 1000" fill="none" xmlns="http://www.w3.org/2000/svg">
<rect width="1000" height="1000" fill="#243A66"/>
<path d="M135.792 791.616C129.915 791.616 124.634 790.592 119.949 788.544C115.349 786.411 111.729 783.509 109.089 779.84C106.448 776.085 105.085 771.776 105 766.912H117.393C117.819 771.093 119.523 774.635 122.504 777.536C125.571 780.352 130 781.76 135.792 781.76C141.329 781.76 145.673 780.395 148.824 777.664C152.061 774.848 153.68 771.264 153.68 766.912C153.68 763.499 152.743 760.725 150.869 758.592C148.995 756.459 146.652 754.837 143.841 753.728C141.031 752.619 137.24 751.424 132.47 750.144C126.593 748.608 121.865 747.072 118.288 745.536C114.796 744 111.772 741.611 109.216 738.368C106.746 735.04 105.511 730.603 105.511 725.056C105.511 720.192 106.746 715.883 109.216 712.128C111.687 708.373 115.136 705.472 119.566 703.424C124.08 701.376 129.233 700.352 135.025 700.352C143.373 700.352 150.187 702.443 155.468 706.624C160.835 710.805 163.858 716.352 164.54 723.264H151.763C151.337 719.851 149.548 716.864 146.397 714.304C143.245 711.659 139.071 710.336 133.876 710.336C129.02 710.336 125.06 711.616 121.993 714.176C118.927 716.651 117.393 720.149 117.393 724.672C117.393 727.915 118.288 730.56 120.077 732.608C121.951 734.656 124.208 736.235 126.848 737.344C129.574 738.368 133.364 739.563 138.22 740.928C144.097 742.549 148.824 744.171 152.402 745.792C155.979 747.328 159.046 749.76 161.601 753.088C164.157 756.331 165.434 760.768 165.434 766.4C165.434 770.752 164.284 774.848 161.984 778.688C159.685 782.528 156.278 785.643 151.763 788.032C147.249 790.421 141.925 791.616 135.792 791.616Z" fill="white"/>
<path d="M213.081 791.872C206.522 791.872 200.559 790.379 195.193 787.392C189.912 784.405 185.738 780.181 182.672 774.72C179.691 769.173 178.2 762.773 178.2 755.52C178.2 748.352 179.733 742.037 182.8 736.576C185.951 731.029 190.21 726.805 195.576 723.904C200.943 720.917 206.948 719.424 213.592 719.424C220.236 719.424 226.241 720.917 231.607 723.904C236.973 726.805 241.19 730.987 244.256 736.448C247.408 741.909 248.983 748.267 248.983 755.52C248.983 762.773 247.365 769.173 244.128 774.72C240.977 780.181 236.675 784.405 231.224 787.392C225.772 790.379 219.725 791.872 213.081 791.872ZM213.081 781.632C217.254 781.632 221.173 780.651 224.835 778.688C228.498 776.725 231.437 773.781 233.651 769.856C235.951 765.931 237.101 761.152 237.101 755.52C237.101 749.888 235.994 745.109 233.779 741.184C231.564 737.259 228.668 734.357 225.091 732.48C221.513 730.517 217.638 729.536 213.464 729.536C209.205 729.536 205.287 730.517 201.709 732.48C198.217 734.357 195.406 737.259 193.277 741.184C191.147 745.109 190.082 749.888 190.082 755.52C190.082 761.237 191.105 766.059 193.149 769.984C195.278 773.909 198.089 776.853 201.582 778.816C205.074 780.693 208.907 781.632 213.081 781.632Z" fill="white"/>
<path d="M326.366 720.576V790.72H314.739V780.352C312.524 783.936 309.415 786.752 305.412 788.8C301.494 790.763 297.15 791.744 292.38 791.744C286.928 791.744 282.03 790.635 277.686 788.416C273.342 786.112 269.892 782.699 267.337 778.176C264.867 773.653 263.632 768.149 263.632 761.664V720.576H275.131V760.128C275.131 767.04 276.877 772.373 280.369 776.128C283.862 779.797 288.632 781.632 294.679 781.632C300.897 781.632 305.795 779.712 309.373 775.872C312.95 772.032 314.739 766.443 314.739 759.104V720.576H326.366Z" fill="white"/>
<path d="M380.111 719.296C388.629 719.296 395.529 721.899 400.81 727.104C406.091 732.224 408.731 739.648 408.731 749.376V790.72H397.232V751.04C397.232 744.043 395.486 738.709 391.994 735.04C388.501 731.285 383.731 729.408 377.684 729.408C371.551 729.408 366.653 731.328 362.99 735.168C359.413 739.008 357.624 744.597 357.624 751.936V790.72H345.997V720.576H357.624V730.56C359.924 726.976 363.033 724.203 366.951 722.24C370.955 720.277 375.341 719.296 380.111 719.296Z" fill="white"/>
<path d="M423.38 755.392C423.38 748.224 424.828 741.952 427.724 736.576C430.62 731.115 434.581 726.891 439.606 723.904C444.717 720.917 450.424 719.424 456.727 719.424C462.179 719.424 467.247 720.704 471.932 723.264C476.616 725.739 480.194 729.024 482.664 733.12V696H494.419V790.72H482.664V777.536C480.364 781.717 476.957 785.173 472.443 787.904C467.928 790.549 462.647 791.872 456.599 791.872C450.381 791.872 444.717 790.336 439.606 787.264C434.581 784.192 430.62 779.883 427.724 774.336C424.828 768.789 423.38 762.475 423.38 755.392ZM482.664 755.52C482.664 750.229 481.599 745.621 479.47 741.696C477.34 737.771 474.444 734.784 470.782 732.736C467.204 730.603 463.243 729.536 458.899 729.536C454.555 729.536 450.594 730.56 447.017 732.608C443.439 734.656 440.586 737.643 438.456 741.568C436.327 745.493 435.262 750.101 435.262 755.392C435.262 760.768 436.327 765.461 438.456 769.472C440.586 773.397 443.439 776.427 447.017 778.56C450.594 780.608 454.555 781.632 458.899 781.632C463.243 781.632 467.204 780.608 470.782 778.56C474.444 776.427 477.34 773.397 479.47 769.472C481.599 765.461 482.664 760.811 482.664 755.52Z" fill="white"/>
<path d="M538.854 791.872C533.488 791.872 528.675 790.976 524.416 789.184C520.157 787.307 516.793 784.747 514.322 781.504C511.852 778.176 510.489 774.379 510.234 770.112H522.244C522.585 773.611 524.203 776.469 527.099 778.688C530.081 780.907 533.956 782.016 538.726 782.016C543.155 782.016 546.648 781.035 549.203 779.072C551.758 777.109 553.036 774.635 553.036 771.648C553.036 768.576 551.673 766.315 548.948 764.864C546.222 763.328 542.006 761.835 536.299 760.384C531.103 759.019 526.844 757.653 523.522 756.288C520.285 754.837 517.474 752.747 515.089 750.016C512.789 747.2 511.639 743.531 511.639 739.008C511.639 735.424 512.704 732.139 514.834 729.152C516.963 726.165 519.987 723.819 523.905 722.112C527.823 720.32 532.295 719.424 537.321 719.424C545.072 719.424 551.333 721.387 556.103 725.312C560.873 729.237 563.428 734.613 563.769 741.44H552.142C551.886 737.771 550.396 734.827 547.67 732.608C545.029 730.389 541.452 729.28 536.937 729.28C532.764 729.28 529.442 730.176 526.972 731.968C524.501 733.76 523.266 736.107 523.266 739.008C523.266 741.312 523.99 743.232 525.438 744.768C526.971 746.219 528.845 747.413 531.06 748.352C533.36 749.205 536.512 750.187 540.515 751.296C545.54 752.661 549.629 754.027 552.781 755.392C555.932 756.672 558.615 758.635 560.83 761.28C563.13 763.925 564.322 767.381 564.408 771.648C564.408 775.488 563.343 778.944 561.213 782.016C559.084 785.088 556.06 787.52 552.142 789.312C548.309 791.019 543.879 791.872 538.854 791.872Z" fill="white"/>
<path d="M576.477 755.52C576.477 748.267 577.925 741.952 580.821 736.576C583.717 731.115 587.72 726.891 592.831 723.904C598.027 720.917 603.947 719.424 610.591 719.424C619.194 719.424 626.263 721.515 631.8 725.696C637.422 729.877 641.127 735.68 642.916 743.104H630.395C629.202 738.837 626.86 735.467 623.367 732.992C619.96 730.517 615.701 729.28 610.591 729.28C603.947 729.28 598.58 731.584 594.492 736.192C590.403 740.715 588.359 747.157 588.359 755.52C588.359 763.968 590.403 770.496 594.492 775.104C598.58 779.712 603.947 782.016 610.591 782.016C615.701 782.016 619.96 780.821 623.367 778.432C626.775 776.043 629.117 772.629 630.395 768.192H642.916C641.042 775.36 637.294 781.12 631.672 785.472C626.05 789.739 619.023 791.872 610.591 791.872C603.947 791.872 598.027 790.379 592.831 787.392C587.72 784.405 583.717 780.181 580.821 774.72C577.925 769.259 576.477 762.859 576.477 755.52Z" fill="white"/>
<path d="M654.086 755.392C654.086 748.224 655.534 741.952 658.43 736.576C661.326 731.115 665.287 726.891 670.312 723.904C675.423 720.917 681.087 719.424 687.305 719.424C693.438 719.424 698.762 720.747 703.276 723.392C707.791 726.037 711.155 729.365 713.37 733.376V720.576H725.125V790.72H713.37V777.664C711.07 781.76 707.62 785.173 703.021 787.904C698.506 790.549 693.225 791.872 687.177 791.872C680.959 791.872 675.338 790.336 670.312 787.264C665.287 784.192 661.326 779.883 658.43 774.336C655.534 768.789 654.086 762.475 654.086 755.392ZM713.37 755.52C713.37 750.229 712.305 745.621 710.176 741.696C708.046 737.771 705.15 734.784 701.487 732.736C697.91 730.603 693.949 729.536 689.605 729.536C685.261 729.536 681.3 730.56 677.723 732.608C674.145 734.656 671.292 737.643 669.162 741.568C667.033 745.493 665.968 750.101 665.968 755.392C665.968 760.768 667.033 765.461 669.162 769.472C671.292 773.397 674.145 776.427 677.723 778.56C681.3 780.608 685.261 781.632 689.605 781.632C693.949 781.632 697.91 780.608 701.487 778.56C705.15 776.427 708.046 773.397 710.176 769.472C712.305 765.461 713.37 760.811 713.37 755.52Z" fill="white"/>
<path d="M756.4 733.504C758.7 729.493 762.107 726.165 766.621 723.52C771.221 720.789 776.544 719.424 782.592 719.424C788.81 719.424 794.432 720.917 799.458 723.904C804.568 726.891 808.572 731.115 811.468 736.576C814.364 741.952 815.812 748.224 815.812 755.392C815.812 762.475 814.364 768.789 811.468 774.336C808.572 779.883 804.568 784.192 799.458 787.264C794.432 790.336 788.81 791.872 782.592 791.872C776.63 791.872 771.349 790.549 766.749 787.904C762.234 785.173 758.785 781.803 756.4 777.792V824H744.773V720.576H756.4V733.504ZM803.929 755.392C803.929 750.101 802.865 745.493 800.735 741.568C798.606 737.643 795.71 734.656 792.047 732.608C788.469 730.56 784.509 729.536 780.165 729.536C775.906 729.536 771.945 730.603 768.282 732.736C764.705 734.784 761.809 737.813 759.594 741.824C757.464 745.749 756.4 750.315 756.4 755.52C756.4 760.811 757.464 765.461 759.594 769.472C761.809 773.397 764.705 776.427 768.282 778.56C771.945 780.608 775.906 781.632 780.165 781.632C784.509 781.632 788.469 780.608 792.047 778.56C795.71 776.427 798.606 773.397 800.735 769.472C802.865 765.461 803.929 760.768 803.929 755.392Z" fill="white"/>
<path d="M895 752.96C895 755.179 894.872 757.525 894.617 760H838.654C839.08 766.912 841.423 772.331 845.682 776.256C850.026 780.096 855.264 782.016 861.397 782.016C866.423 782.016 870.596 780.864 873.918 778.56C877.325 776.171 879.71 773.013 881.073 769.088H893.595C891.721 775.829 887.973 781.333 882.351 785.6C876.729 789.781 869.745 791.872 861.397 791.872C854.753 791.872 848.791 790.379 843.509 787.392C838.314 784.405 834.225 780.181 831.244 774.72C828.263 769.173 826.772 762.773 826.772 755.52C826.772 748.267 828.22 741.909 831.116 736.448C834.012 730.987 838.058 726.805 843.254 723.904C848.535 720.917 854.583 719.424 861.397 719.424C868.041 719.424 873.918 720.875 879.029 723.776C884.14 726.677 888.058 730.688 890.784 735.808C893.595 740.843 895 746.56 895 752.96ZM882.99 750.528C882.99 746.091 882.01 742.293 880.051 739.136C878.092 735.893 875.409 733.461 872.002 731.84C868.68 730.133 864.975 729.28 860.886 729.28C855.009 729.28 849.983 731.157 845.809 734.912C841.721 738.667 839.378 743.872 838.782 750.528H882.99Z" fill="white"/>
<path d="M334.607 841.084H327.712V868.853H322.257V841.084H318V836.681H322.257V834.391C322.257 830.791 323.196 828.168 325.074 826.524C326.993 824.841 330.05 824 334.247 824V828.462C331.849 828.462 330.15 828.932 329.151 829.871C328.192 830.771 327.712 832.278 327.712 834.391V836.681H334.607V841.084Z" fill="white"/>
<path d="M355.296 869.382C352.218 869.382 349.421 868.697 346.903 867.327C344.425 865.957 342.466 864.02 341.027 861.515C339.629 858.971 338.929 856.035 338.929 852.708C338.929 849.421 339.649 846.524 341.087 844.02C342.566 841.476 344.565 839.538 347.083 838.207C349.601 836.838 352.418 836.153 355.536 836.153C358.653 836.153 361.471 836.838 363.989 838.207C366.507 839.538 368.485 841.456 369.924 843.961C371.403 846.466 372.142 849.382 372.142 852.708C372.142 856.035 371.383 858.971 369.864 861.515C368.385 864.02 366.367 865.957 363.809 867.327C361.251 868.697 358.413 869.382 355.296 869.382ZM355.296 864.685C357.254 864.685 359.093 864.235 360.811 863.335C362.53 862.434 363.909 861.084 364.948 859.284C366.027 857.483 366.567 855.292 366.567 852.708C366.567 850.125 366.047 847.933 365.008 846.133C363.969 844.333 362.61 843.002 360.931 842.141C359.253 841.241 357.434 840.791 355.476 840.791C353.477 840.791 351.639 841.241 349.96 842.141C348.322 843.002 347.003 844.333 346.003 846.133C345.004 847.933 344.505 850.125 344.505 852.708C344.505 855.331 344.984 857.542 345.943 859.342C346.943 861.143 348.262 862.493 349.9 863.393C351.539 864.254 353.337 864.685 355.296 864.685Z" fill="white"/>
<path d="M384.771 841.906C385.73 840.067 387.089 838.638 388.848 837.62C390.646 836.603 392.824 836.094 395.382 836.094V841.613H393.944C387.828 841.613 384.771 844.861 384.771 851.358V868.853H379.315V836.681H384.771V841.906Z" fill="white"/>
<path d="M423.119 832.278V845.957H438.346V850.36H423.119V864.45H440.145V868.853H417.663V827.875H440.145V832.278H423.119Z" fill="white"/>
<path d="M460.63 863.922L470.822 836.681H476.637L463.748 868.853H457.393L444.503 836.681H450.378L460.63 863.922Z" fill="white"/>
<path d="M511.981 851.534C511.981 852.552 511.921 853.628 511.802 854.763H485.543C485.743 857.933 486.842 860.419 488.84 862.219C490.878 863.98 493.336 864.861 496.214 864.861C498.572 864.861 500.531 864.333 502.089 863.276C503.688 862.18 504.807 860.732 505.447 858.932H511.322C510.443 862.023 508.684 864.548 506.046 866.505C503.408 868.423 500.131 869.382 496.214 869.382C493.097 869.382 490.299 868.697 487.821 867.327C485.383 865.957 483.464 864.02 482.066 861.515C480.667 858.971 479.967 856.035 479.967 852.708C479.967 849.382 480.647 846.466 482.006 843.961C483.365 841.456 485.263 839.538 487.701 838.207C490.179 836.838 493.017 836.153 496.214 836.153C499.332 836.153 502.089 836.818 504.487 838.149C506.886 839.479 508.724 841.319 510.003 843.667C511.322 845.977 511.981 848.599 511.981 851.534ZM506.346 850.419C506.346 848.384 505.886 846.642 504.967 845.194C504.048 843.706 502.789 842.591 501.19 841.847C499.631 841.065 497.893 840.673 495.974 840.673C493.217 840.673 490.858 841.534 488.9 843.256C486.982 844.978 485.883 847.366 485.603 850.419H506.346Z" fill="white"/>
<path d="M524.638 841.906C525.597 840.067 526.956 838.638 528.715 837.62C530.513 836.603 532.692 836.094 535.25 836.094V841.613H533.811C527.696 841.613 524.638 844.861 524.638 851.358V868.853H519.183V836.681H524.638V841.906Z" fill="white"/>
<path d="M569.844 836.681L550.06 884H544.425L550.9 868.501L537.65 836.681H543.706L554.017 862.748L564.209 836.681H569.844Z" fill="white"/>
<path d="M589.657 869.382C586.579 869.382 583.782 868.697 581.264 867.327C578.786 865.957 576.827 864.02 575.388 861.515C573.99 858.971 573.29 856.035 573.29 852.708C573.29 849.421 574.01 846.524 575.448 844.02C576.927 841.476 578.926 839.538 581.444 838.207C583.962 836.838 586.779 836.153 589.897 836.153C593.014 836.153 595.832 836.838 598.35 838.207C600.868 839.538 602.846 841.456 604.285 843.961C605.764 846.466 606.503 849.382 606.503 852.708C606.503 856.035 605.744 858.971 604.225 861.515C602.746 864.02 600.728 865.957 598.17 867.327C595.612 868.697 592.774 869.382 589.657 869.382ZM589.657 864.685C591.615 864.685 593.454 864.235 595.172 863.335C596.891 862.434 598.27 861.084 599.309 859.284C600.388 857.483 600.928 855.292 600.928 852.708C600.928 850.125 600.408 847.933 599.369 846.133C598.33 844.333 596.971 843.002 595.292 842.141C593.614 841.241 591.795 840.791 589.837 840.791C587.838 840.791 586 841.241 584.321 842.141C582.683 843.002 581.364 844.333 580.364 846.133C579.365 847.933 578.866 850.125 578.866 852.708C578.866 855.331 579.345 857.542 580.305 859.342C581.304 861.143 582.623 862.493 584.261 863.393C585.9 864.254 587.699 864.685 589.657 864.685Z" fill="white"/>
<path d="M629.683 836.094C633.68 836.094 636.918 837.288 639.396 839.675C641.874 842.023 643.113 845.429 643.113 849.89V868.853H637.717V850.654C637.717 847.444 636.898 844.998 635.259 843.315C633.62 841.593 631.382 840.732 628.544 840.732C625.667 840.732 623.369 841.613 621.65 843.374C619.971 845.135 619.132 847.699 619.132 851.065V868.853H613.676V836.681H619.132V841.26C620.211 839.616 621.67 838.344 623.508 837.444C625.387 836.544 627.445 836.094 629.683 836.094Z" fill="white"/>
<path d="M682 851.534C682 852.552 681.94 853.628 681.82 854.763H655.561C655.761 857.933 656.86 860.419 658.859 862.219C660.897 863.98 663.355 864.861 666.233 864.861C668.591 864.861 670.549 864.333 672.108 863.276C673.707 862.18 674.826 860.732 675.465 858.932H681.341C680.461 862.023 678.703 864.548 676.065 866.505C673.427 868.423 670.15 869.382 666.233 869.382C663.115 869.382 660.318 868.697 657.84 867.327C655.402 865.957 653.483 864.02 652.084 861.515C650.685 858.971 649.986 856.035 649.986 852.708C649.986 849.382 650.665 846.466 652.024 843.961C653.383 841.456 655.282 839.538 657.72 838.207C660.198 836.838 663.035 836.153 666.233 836.153C669.35 836.153 672.108 836.818 674.506 838.149C676.904 839.479 678.743 841.319 680.022 843.667C681.341 845.977 682 848.599 682 851.534ZM676.365 850.419C676.365 848.384 675.905 846.642 674.986 845.194C674.066 843.706 672.807 842.591 671.209 841.847C669.65 841.065 667.911 840.673 665.993 840.673C663.235 840.673 660.877 841.534 658.919 843.256C657 844.978 655.901 847.366 655.621 850.419H676.365Z" fill="white"/>
<path d="M500 616C638.071 616 750 504.071 750 366C750 227.929 638.071 116 500 116C361.929 116 250 227.929 250 366C250 504.071 361.929 616 500 616Z" fill="#243A66"/>
<path fill-rule="evenodd" clip-rule="evenodd" d="M402 419.217C403.705 423.076 404.836 426.575 405.568 428.863L406.266 431C410.024 417.374 413.849 408.757 419.271 403.313C421.772 400.658 424.782 398.538 428.12 397.08C431.457 395.622 435.054 394.857 438.694 394.83C442.654 394.83 446.478 395.759 450 397.483V242.841C449.871 242.049 449.461 241.329 448.843 240.813C448.226 240.298 447.443 240.019 446.636 240.03H405.364C404.969 239.974 404.568 239.997 404.183 240.099C403.798 240.201 403.438 240.379 403.124 240.623C402.81 240.866 402.548 241.171 402.355 241.517C402.162 241.864 402.041 242.246 402 242.64V419.217Z" fill="#4DD1FF"/>
<path fill-rule="evenodd" clip-rule="evenodd" d="M527 411V153.426C527 152.078 525.521 151 523.561 151H481.439C479.616 151 478 152.078 478 153.426V408.323C479.005 406.816 480.132 405.388 481.373 404.057C484.537 400.66 488.37 397.961 492.628 396.13C495.439 395.032 498.422 394.445 501.438 394.394H501.937L502.324 394.409C505.35 394.46 508.157 395.399 510.98 396.497C515.238 398.321 519.07 401.019 522.23 404.417C524.086 406.413 525.687 408.625 527 411Z" fill="#FF5B00"/>
<path fill-rule="evenodd" clip-rule="evenodd" d="M555 397.835C558.124 396.519 561.464 395.817 564.917 395.817C568.554 395.871 572.144 396.65 575.48 398.106C578.815 399.563 581.83 401.669 584.35 404.303C589.774 409.749 593.6 418.369 597.36 432L598.059 429.862C598.835 427.404 600.078 423.549 602 419.351V296.171C602 294.969 600.582 294 598.702 294H558.298C556.55 294 555 294.969 555 296.171V397.835Z" fill="white"/>
<path fill-rule="evenodd" clip-rule="evenodd" d="M285 367.063C285 262.24 360.102 174.947 459.463 156V192.859C380.058 211.444 320.919 282.767 320.919 367.917C320.919 381.393 322.4 394.523 325.209 407.153C322.002 404.63 318.24 402.86 314.203 402.007L313.1 401.774H311.997C311.351 401.74 310.704 401.74 310.058 401.774C299.22 401.774 293.922 409.301 291.077 418C287.105 401.671 285 384.613 285 367.063ZM709.478 415.663C713.091 400.046 715 383.777 715 367.063C715 264.052 642.472 177.971 545.668 157.044V193.871C622.998 213.918 680.108 284.241 680.108 367.917C680.108 382.722 678.32 397.108 674.949 410.872C678.774 406.558 683.883 403.578 689.529 402.375L690.598 402.141H691.701H693.673C700.267 402.154 705.484 408.147 709.478 415.663Z" fill="white"/>
<path fill-rule="evenodd" clip-rule="evenodd" d="M504.375 414.436C503.655 414.175 502.899 414.028 502.134 414H501.9C501.146 414.032 500.402 414.178 499.693 414.436C497.87 415.359 496.256 416.648 494.95 418.222C493.644 419.796 492.675 421.623 492.102 423.588C488.744 433.62 486.118 443.883 484.243 454.297C481.899 464.636 479.157 483.427 476.726 500.084C474.128 517.885 471.886 533.247 470.867 533.247C470.758 533.247 470.636 533.093 470.503 532.798C469.526 532.242 467.901 521.527 466.039 508.453C465.698 506.215 465.349 503.908 464.995 501.572C462.921 487.862 460.693 473.13 458.862 465.058C456.389 451.445 453.038 438.007 448.83 424.828C446.857 419.163 443.078 414.771 438.797 414.771C437.683 414.824 436.591 415.1 435.586 415.584C434.581 416.068 433.683 416.749 432.945 417.587C427.142 423.435 421.858 448.263 418.846 462.415C418.525 463.92 418.231 465.305 417.964 466.533C416.184 474.678 414.571 483.702 413.105 491.9C410.522 506.345 408.398 518.228 406.627 518.228C405.275 518.228 402.325 503.537 398.821 486.079C395.135 467.717 390.834 446.294 387.131 435.69C384.59 427.712 380.075 416.749 373.922 416.749C371.648 416.749 369.14 418.258 366.432 422.012C360.236 431.574 354.104 448.532 349.39 461.567C345.707 471.751 342.89 479.541 341.585 479.541C341.085 479.541 340.551 479.167 339.994 478.513C338.041 476.735 336.01 471.225 334.125 466.082C334.013 465.793 333.902 465.504 333.791 465.218C332.994 463.151 332.237 461.187 331.553 459.594C330.276 456.557 329.085 453.468 327.894 450.38C324.311 441.091 320.73 431.807 314.832 423.957C313.737 422.56 312.226 421.55 310.519 421.074H310.151C305.235 421.074 301.155 429.053 298.146 441.189C296.708 447.022 296.708 449.201 297.677 449.201C298.647 449.201 300.486 446.251 301.557 442.496C302.827 437.903 306.907 426.371 309.95 426.371C311.789 426.371 316.337 435.422 318.912 441.658C319.685 443.529 320.867 446.734 322.305 450.632C325.659 459.727 330.406 472.598 334.596 481.116C336.937 485.944 339.411 487.821 341.786 487.821C345.531 487.821 349.109 483.161 351.818 477.496C355.162 470.808 357.965 463.82 360.757 456.86C363.158 450.875 365.55 444.912 368.271 439.177C369.738 435.755 371.577 432.506 373.755 429.488C374.989 429.488 377.483 442.059 380.76 458.575C385.384 481.881 391.566 513.042 397.966 527.816C400.876 533.616 404.052 535.963 407.095 535.963C412.011 535.963 416.693 529.493 418.699 521.547C422.778 505.408 426.502 488.661 429.667 474.43C434.338 453.425 437.79 437.9 439.365 437.9C441.427 437.9 446.115 466.008 450.141 490.145C451.274 496.942 452.355 503.424 453.311 508.875C454.115 513.457 454.802 517.694 455.439 521.623C457.954 537.128 459.692 547.847 464.814 556.111C465.44 556.929 466.159 557.671 466.954 558.324C468.258 559.347 469.849 559.933 471.502 560C472.514 559.99 473.513 559.774 474.438 559.365C475.364 558.956 476.197 558.362 476.886 557.62C480.131 553.838 481.536 548.512 482.799 543.725C483.058 542.741 483.312 541.778 483.575 540.857C486.195 529.557 488.478 514.568 490.759 499.596C493.018 484.764 495.274 469.95 497.854 458.755C499.024 453.291 500.918 445.924 502.456 439.957C503.422 443.624 504.165 447.82 504.866 451.778C505.306 454.26 505.729 456.649 506.18 458.755C508.76 469.95 511.016 484.764 513.275 499.596C515.556 514.568 517.839 529.557 520.46 540.857C520.654 541.601 520.845 542.369 521.04 543.152C522.283 548.154 523.678 553.764 527.148 557.62C527.842 558.356 528.676 558.945 529.6 559.354C530.525 559.763 531.521 559.982 532.532 560C534.187 559.94 535.78 559.353 537.08 558.324C537.884 557.68 538.603 556.937 539.22 556.111C544.391 547.811 546.127 537.035 548.643 521.422C549.267 517.549 549.939 513.379 550.723 508.875C551.403 505.029 552.164 500.631 552.975 495.942C557.396 470.385 563.305 436.227 565.538 436.227C566.984 436.227 569.784 449.825 573.669 468.69C576.878 484.28 580.829 503.466 585.368 521.547C587.375 529.493 591.956 535.963 596.972 535.963C600.015 535.963 603.192 533.616 606.068 527.816C612.358 513.207 618.789 482.292 623.668 458.838C627.22 441.764 629.949 428.644 631.203 428.644C633.381 431.662 635.378 435.507 636.845 438.929C642.731 451.333 647.617 464.64 652.25 477.496C654.925 483.161 658.503 487.821 662.282 487.821C664.656 487.821 667.131 485.81 669.472 481.116C673.662 472.598 678.409 459.727 681.763 450.632C683.201 446.733 684.383 443.529 685.155 441.658C687.73 435.422 692.278 426.371 694.117 426.371C697.127 426.371 701.24 437.903 702.511 442.496C703.581 446.083 705.587 449.201 706.39 449.201C707.193 449.201 707.36 447.022 705.922 441.189C703.549 431.621 700.511 424.637 696.923 422.11C695.909 421.471 694.883 421.167 693.863 421.249C692.643 421.583 690.849 422.56 689.524 423.604C689.425 423.719 689.328 423.836 689.235 423.957C683.525 431.688 679.971 440.793 676.399 449.945C675.138 453.175 673.875 456.41 672.515 459.594C671.938 461.001 671.3 462.686 670.624 464.472C668.049 471.274 664.919 479.541 662.482 479.541C661.15 479.541 658.523 471.772 655.075 461.579C650.561 448.232 644.641 430.73 638.384 421.074C635.675 417.319 631.972 415.789 629.664 415.789C623.545 415.789 619.478 427.712 616.936 435.69C613.224 446.322 608.902 467.828 605.205 486.222C601.709 503.617 598.773 518.228 597.44 518.228C595.678 518.228 593.515 506.169 590.899 491.58C589.444 483.467 587.848 474.572 586.104 466.533C585.838 465.311 585.545 463.934 585.226 462.437C582.215 448.289 576.925 423.438 571.089 417.587C570.355 416.753 569.462 416.074 568.463 415.59C567.464 415.107 566.378 414.828 565.27 414.771C560.889 414.771 557.111 419.196 555.238 424.828C550.998 437.998 547.647 451.438 545.206 465.058C543.391 473.087 541.2 487.628 539.151 501.227C536.631 517.95 534.326 533.247 533.201 533.247C532.14 533.247 529.877 517.684 527.267 499.736C524.857 483.166 522.152 464.564 519.824 454.297C517.934 443.887 515.308 433.625 511.966 423.588C511.393 421.623 510.424 419.796 509.118 418.222C507.812 416.648 506.198 415.359 504.375 414.436Z" fill="white"/>
</svg>
